<svg xmlns="http://www.w3.org/2000/svg" 
version="1.1" 
xmlns:xlink="http://www.w3.org/1999/xlink" 
xmlns:svgjs="http://svgjs.dev/svgjs" 
width="200" height="200" 
viewBox="0 0 2000 2000">
<g transform="matrix(1,0,0,1,0,0)">
<svg viewBox="0 0 280 280" 
data-background-color="#97978d"
preserveAspectRatio="xMidYMid meet" 
height="2000" width="2000"
 xmlns="http://www.w3.org/2000/svg" 
 xmlns:xlink="http://www.w3.org/1999/xlink">
 <g id="tight-bounds" transform="matrix(1,0,0,1,0,0)">
 <svg viewBox="0 0 280 280" height="280" width="280">
 <g><svg viewBox="0 0 280 280" height="280" 
 width="280"><g>
 <svg viewBox="0 0 280 280" height="280" width="280">
 <g id="textblocktransform">
 <svg viewBox="0 0 280 280" height="280" width="280" id="textblock"><g>
 <svg viewBox="0 0 280 280" height="280" width="280">
 <g transform="matrix(1,0,0,1,74.00336708925556,74.00336708925556)"
 ><svg viewBox="0 0 131.99326582148888 131.99326582148888" 
 height="131.99326582148888" width="131.99326582148888">
 <g id="icon-0"><circle r="66" cx="65.99663291074444" cy="65.99663291074444" fill="#ffffff" data-fill-palette-color="accent"></circle></g></svg></g><g id="text-0"><path d="M86.108 6.297v0l0.552 2.321c-2.1 0.477-3.816 1.03-5.15 1.659v0c-4.791 2.26-6.499 4.847-5.124 7.761v0c0.524 1.111 1.278 1.797 2.261 2.058 0.983 0.261 2.102 0.329 3.357 0.205 1.255-0.124 2.572-0.323 3.953-0.596 1.38-0.274 2.724-0.402 4.03-0.385v0c3.077 0.058 5.215 1.359 6.415 3.903 1.2 2.544 1.158 4.918-0.127 7.124v0c-1.094 1.905-2.975 3.486-5.641 4.745v0c-3.309 1.561-6.455 2.124-9.438 1.689v0l0.072-2.344c0.888 0.155 2.046 0.145 3.473-0.03 1.427-0.175 2.721-0.536 3.881-1.084v0c2.272-1.072 3.888-2.287 4.847-3.645v0c1.149-1.659 1.322-3.341 0.519-5.044v0c-0.594-1.259-1.409-2.075-2.445-2.447-1.036-0.372-2.193-0.52-3.471-0.446-1.278 0.075-2.607 0.249-3.987 0.522-1.38 0.274-2.712 0.426-3.996 0.458v0c-3.007 0.09-5.017-0.939-6.03-3.087-1.013-2.148-1.076-4.202-0.189-6.161 0.888-1.958 2.69-3.578 5.406-4.859v0c2.099-0.99 4.376-1.762 6.832-2.317z" fill="#ffffff" data-fill-palette-color="primary"></path><path d="M199.114 16.638l1.663-4.933c-1.106-1.007-2.374-1.783-3.802-2.328v0c-2.883-1.1-5.615-0.929-8.196 0.512-2.581 1.441-4.65 4.202-6.207 8.284-1.557 4.082-1.716 7.294-0.478 9.637v0c0.838 1.635 2.392 2.885 4.662 3.751v0c1.454 0.555 2.978 0.946 4.572 1.175 1.593 0.228 2.716 0.291 3.369 0.189v0l-0.18 2.08c-1.405 0.312-3.564 0.072-6.477-0.718v0c-0.855-0.209-1.736-0.487-2.641-0.833-0.906-0.346-1.915-0.899-3.028-1.659-1.113-0.761-2.021-1.787-2.727-3.079v0c-1.604-2.921-1.51-6.728 0.282-11.422 1.791-4.694 4.292-7.897 7.502-9.609 3.21-1.712 6.601-1.887 10.173-0.524v0c1.99 0.759 3.548 1.807 4.675 3.143v0c0.429 0.485 0.733 0.952 0.912 1.4v0l-2.117 5.549z" fill="#ffffff" data-fill-palette-color="primary"></path><path d="M0 143.253c0-6.066 4.917-10.983 10.983-10.983 6.066 0 10.983 4.917 10.983 10.983 0 6.066-4.917 10.983-10.983 10.983-6.066 0-10.983-4.917-10.983-10.983z" fill="#ffffff" data-fill-palette-color="primary"></path><path d="M258.034 143.253c0-6.066 4.917-10.983 10.983-10.983 6.066 0 10.983 4.917 10.983 10.983 0 6.066-4.917 10.983-10.983 10.983-6.066 0-10.983-4.917-10.983-10.983z" fill="#ffffff" data-fill-palette-color="primary"></path></g><g id="text-1"><path d="M101.1 248.545v0l-1.444 1.911c-1.71-1.319-3.232-2.293-4.566-2.921v0c-4.81-2.267-7.903-1.941-9.28 0.98v0c-0.527 1.118-0.575 2.14-0.144 3.067 0.424 0.925 1.087 1.833 1.987 2.725 0.894 0.889 1.887 1.784 2.98 2.684 1.089 0.891 2.046 1.847 2.87 2.87v0c1.916 2.42 2.273 4.905 1.07 7.454-1.202 2.55-3.066 4.03-5.59 4.44v0c-2.175 0.371-4.599-0.074-7.273-1.334v0c-3.316-1.563-5.759-3.639-7.331-6.229v0l1.863-1.431c0.446 0.784 1.193 1.672 2.242 2.665 1.043 0.99 2.148 1.759 3.315 2.309v0c2.278 1.074 4.247 1.549 5.905 1.425v0c2.018-0.166 3.43-1.104 4.236-2.814v0c0.597-1.266 0.709-2.417 0.337-3.452-0.378-1.039-1.001-2.03-1.869-2.975-0.877-0.942-1.86-1.858-2.95-2.749-1.096-0.894-2.064-1.826-2.904-2.795v0c-1.986-2.272-2.47-4.485-1.455-6.64 1.016-2.155 2.561-3.513 4.637-4.074 2.085-0.564 4.489-0.205 7.212 1.078v0c2.106 0.992 4.156 2.261 6.152 3.806z" fill="#ffffff" data-fill-palette-color="secondary"></path><path d="M192.013 251.149l-2.049-4.796c-1.502-0.011-2.971 0.257-4.406 0.804v0c-2.889 1.102-4.818 3.055-5.787 5.858-0.963 2.8-0.664 6.244 0.896 10.333 1.562 4.094 3.587 6.606 6.075 7.534v0c1.72 0.659 3.718 0.554 5.995-0.315v0c1.46-0.557 2.861-1.282 4.202-2.173 1.347-0.894 2.229-1.596 2.648-2.107v0l1.255 1.681c-0.84 1.168-2.613 2.429-5.319 3.783v0c-0.784 0.416-1.628 0.797-2.534 1.142-0.912 0.348-2.036 0.609-3.372 0.783-1.343 0.176-2.709 0.014-4.098-0.486v0c-3.15-1.114-5.623-4.024-7.42-8.731-1.796-4.707-2.065-8.772-0.807-12.197 1.258-3.424 3.676-5.819 7.253-7.184v0c1.996-0.762 3.863-1.021 5.6-0.778v0c0.643 0.076 1.182 0.225 1.617 0.446v0l2.121 5.559z" fill="#ffffff" data-fill-palette-color="secondary"></path></g></svg></g></svg></g></svg></g></svg></g><defs></defs></svg><rect width="280" height="280" fill="none" stroke="none" visibility="hidden">
 </rect></g></svg></g></svg>